<svg xmlns="http://www.w3.org/2000/svg" width="249" height="150" fill="none"><g filter="url(#a)" opacity=".3"><path fill="url(#b)" d="M80.188 162.737c24.766 43.097 98.212 93.044 149.982 79.13 51.77-13.913 66.348-98.651 41.581-141.748-24.766-43.096-79.497-28.232-131.267-14.318-51.77 13.913-85.062 33.84-60.296 76.936Z"/></g><g filter="url(#c)" opacity=".3"><path fill="url(#d)" fill-opacity=".8" d="M256.831 257.352c-67.911-12.823-160.333-45.075-156.729-64.166 3.605-19.091 117.74-18.474 185.651-5.651 67.912 12.822 63.884 32.994 60.279 52.085-3.604 19.091-21.289 30.554-89.201 17.732Z"/></g><rect width="25.5" height="25.5" fill="#fff" fill-opacity=".64" rx="6.375" transform="matrix(1 0 0 -1 224.926 126.905)"/><rect width="25.5" height="25.5" fill="#fff" fill-opacity=".64" rx="6.375" transform="matrix(1 0 0 -1 148.43 152.087)"/><rect width="25.5" height="25.5" fill="#fff" fill-opacity=".64" rx="6.375" transform="matrix(1 0 0 -1 97.43 152.087)"/><rect width="25.5" height="25.5" fill="#fff" fill-opacity=".64" rx="6.375" transform="matrix(1 0 0 -1 199.426 101.087)"/><rect width="25.5" height="25.5" fill="#fff" fill-opacity=".64" rx="6.375" transform="matrix(1 0 0 -1 224.926 75.587)"/><rect width="25.5" height="25.5" fill="#fff" fill-opacity=".64" rx="6.375" transform="matrix(1 0 0 -1 173.93 126.587)"/><rect width="25.5" height="25.5" fill="#fff" fill-opacity=".64" rx="6.375" transform="matrix(1 0 0 -1 199.426 152.405)"/><path fill="#fff" fill-opacity=".64" d="M148.43 158.462a6.375 6.375 0 0 1 6.375-6.375 6.375 6.375 0 0 1-6.375-6.375 6.376 6.376 0 0 1-6.211 6.373l-.164.002a6.375 6.375 0 0 1 6.375 6.375Zm-51 0a6.375 6.375 0 0 1 6.375-6.375 6.375 6.375 0 0 1-6.375-6.375 6.375 6.375 0 0 1-6.21 6.373l-.165.002a6.375 6.375 0 0 1 6.375 6.375Zm76.5-25.5a6.375 6.375 0 0 1 6.375-6.375 6.375 6.375 0 0 1-6.375-6.375 6.376 6.376 0 0 1-6.211 6.373l-.164.002a6.375 6.375 0 0 1 6.375 6.375Zm50.996.318a6.375 6.375 0 0 1 6.375-6.375 6.375 6.375 0 0 1-6.375-6.375 6.375 6.375 0 0 1-6.211 6.373l-.164.002a6.375 6.375 0 0 1 6.375 6.375Zm25.5 0a6.375 6.375 0 0 1 6.375-6.375 6.375 6.375 0 0 1-6.375-6.375 6.375 6.375 0 0 1-6.211 6.373l-.164.002a6.375 6.375 0 0 1 6.375 6.375Zm-51 25.5a6.375 6.375 0 0 1 6.375-6.375 6.375 6.375 0 0 1-6.375-6.375 6.375 6.375 0 0 1-6.211 6.373l-.164.002a6.375 6.375 0 0 1 6.375 6.375Z"/><defs><radialGradient id="b" cx="0" cy="0" r="1" gradientTransform="matrix(134.572 219.547 141.35 -40.8501 131.288 48.924)" gradientUnits="userSpaceOnUse"><stop offset=".024" stop-color="#F5F074"/><stop offset=".308" stop-color="#E8737D"/><stop offset=".726" stop-color="#C8BEF9"/><stop offset="1" stop-color="#E788B8"/></radialGradient><radialGradient id="d" cx="0" cy="0" r="1" gradientTransform="matrix(-348.54 -68.5889 13.8467 -51.9132 400.466 245.929)" gradientUnits="userSpaceOnUse"><stop offset="1" stop-color="#E788B8"/></radialGradient><filter id="a" width="354.841" height="315.822" x=".251" y="0" color-interpolation-filters="sRGB" filterUnits="userSpaceOnUse"><feFlood flood-opacity="0" result="BackgroundImageFix"/><feBlend in="SourceGraphic" in2="BackgroundImageFix" result="shape"/><feGaussianBlur result="effect1_foregroundBlur_197_7010" stdDeviation="35.79"/></filter><filter id="c" width="447.707" height="284.47" x="0" y="78.317" color-interpolation-filters="sRGB" filterUnits="userSpaceOnUse"><feFlood flood-opacity="0" result="BackgroundImageFix"/><feBlend in="SourceGraphic" in2="BackgroundImageFix" result="shape"/><feGaussianBlur result="effect1_foregroundBlur_197_7010" stdDeviation="50"/></filter></defs></svg>