<svg xmlns="http://www.w3.org/2000/svg" width="275" height="181" fill="none"><g filter="url(#a)"><path fill="url(#b)" d="M80.188-19.25C104.954 23.847 178.4 73.793 230.17 59.88c51.77-13.914 66.348-98.652 41.581-141.748-24.766-43.097-79.497-28.232-131.267-14.318-51.77 13.913-85.062 33.84-60.296 76.936Z"/></g><g filter="url(#c)" opacity=".3"><path fill="url(#d)" d="M256.831 75.365C188.92 62.542 96.498 30.29 100.102 11.198c3.605-19.09 117.74-18.473 185.651-5.65 67.912 12.822 63.884 32.994 60.279 52.085-3.604 19.091-21.289 30.554-89.201 17.732Z"/></g><rect width="25.5" height="25.5" fill="#fff" fill-opacity=".64" rx="6.375" transform="matrix(1 0 0 -1 250.426 21.418)"/><rect width="25.5" height="25.5" fill="#fff" fill-opacity=".64" rx="6.375" transform="matrix(1 0 0 -1 199.426 21.418)"/><rect width="25.5" height="25.5" fill="#fff" fill-opacity=".64" rx="6.375" transform="matrix(1 0 0 -1 224.926 46.598)"/><rect width="25.5" height="25.5" fill="#fff" fill-opacity=".64" rx="6.375" transform="matrix(1 0 0 -1 148.43 21.098)"/><rect width="25.5" height="25.5" fill="#fff" fill-opacity=".64" rx="6.375" transform="matrix(1 0 0 -1 97.43 21.098)"/><rect width="25.5" height="25.5" fill="#fff" fill-opacity=".64" rx="6.375" transform="matrix(1 0 0 -1 173.926 46.28)"/><rect width="25.5" height="25.5" fill="#fff" fill-opacity=".64" rx="6.375" transform="matrix(1 0 0 -1 199.426 71.777)"/><rect width="25.5" height="25.5" fill="#fff" fill-opacity=".64" rx="6.375" transform="matrix(1 0 0 -1 224.926 97.28)"/><rect width="25.5" height="25.5" fill="#fff" fill-opacity=".64" rx="6.375" transform="matrix(1 0 0 -1 250.426 71.777)"/><path fill="#fff" fill-opacity=".64" d="M224.926 27.791a6.375 6.375 0 0 1 6.375-6.375 6.375 6.375 0 0 1-6.375-6.375 6.375 6.375 0 0 1-6.211 6.373l-.164.002a6.375 6.375 0 0 1 6.375 6.375Zm-50.996-.318a6.375 6.375 0 0 1 6.375-6.375 6.375 6.375 0 0 1-6.375-6.375 6.375 6.375 0 0 1-6.211 6.373l-.164.002a6.376 6.376 0 0 1 6.375 6.375Zm-25.5-25.5a6.375 6.375 0 0 1 6.375-6.375 6.375 6.375 0 0 1-6.375-6.375 6.375 6.375 0 0 1-6.211 6.373l-.164.002a6.375 6.375 0 0 1 6.375 6.375Zm-51 0a6.375 6.375 0 0 1 6.375-6.375 6.375 6.375 0 0 1-6.375-6.375 6.375 6.375 0 0 1-6.21 6.373l-.165.002a6.375 6.375 0 0 1 6.375 6.375Zm101.996.318a6.375 6.375 0 0 1 6.375-6.375 6.375 6.375 0 0 1-6.375-6.375 6.375 6.375 0 0 1-6.211 6.373l-.164.002a6.375 6.375 0 0 1 6.375 6.375Zm76.496 0a6.375 6.375 0 0 1 6.375-6.375 6.375 6.375 0 0 1-6.375-6.375 6.375 6.375 0 0 1-6.21 6.373l-.165.002a6.375 6.375 0 0 1 6.375 6.375Zm-25.496 25.5a6.375 6.375 0 0 1 6.375-6.375 6.375 6.375 0 0 1-6.375-6.375 6.375 6.375 0 0 1-6.211 6.373l-.164.002a6.375 6.375 0 0 1 6.375 6.375Z"/><defs><radialGradient id="b" cx="0" cy="0" r="1" gradientTransform="matrix(134.572 219.547 141.35 -40.8501 131.288 -133.063)" gradientUnits="userSpaceOnUse"><stop offset=".024" stop-color="#F5F074"/><stop offset=".308" stop-color="#E8737D"/><stop offset=".726" stop-color="#C8BEF9"/><stop offset="1" stop-color="#E788B8"/></radialGradient><radialGradient id="d" cx="0" cy="0" r="1" gradientTransform="matrix(-348.54 -68.5889 13.8467 -51.9132 400.466 63.942)" gradientUnits="userSpaceOnUse"><stop offset="1" stop-color="#E788B8"/></radialGradient><filter id="a" width="354.841" height="315.822" x=".251" y="-181.987" color-interpolation-filters="sRGB" filterUnits="userSpaceOnUse"><feFlood flood-opacity="0" result="BackgroundImageFix"/><feBlend in="SourceGraphic" in2="BackgroundImageFix" result="shape"/><feGaussianBlur result="effect1_foregroundBlur_197_9349" stdDeviation="35.79"/></filter><filter id="c" width="447.707" height="284.47" x="0" y="-103.67" color-interpolation-filters="sRGB" filterUnits="userSpaceOnUse"><feFlood flood-opacity="0" result="BackgroundImageFix"/><feBlend in="SourceGraphic" in2="BackgroundImageFix" result="shape"/><feGaussianBlur result="effect1_foregroundBlur_197_9349" stdDeviation="50"/></filter></defs></svg>