<svg xmlns="http://www.w3.org/2000/svg" viewBox="0 0 14 14" fill="currentColor">
  <path
    d="M1.422 3.502L3.343 4.435L5.047 5.26C6.137 5.787 6.558 5.979 7 5.979C7.442 5.979 7.863 5.787 8.953 5.26L10.657 4.435L12.578 3.502C12.646 3.579 12.688 3.681 12.688 3.792V10.011C12.688 10.664 12.211 11.099 11.624 11.451C11.03 11.808 10.033 12.229 8.928 12.695C8.101 13.045 7.567 13.271 7 13.271C6.433 13.271 5.899 13.045 5.072 12.695C3.967 12.229 2.97 11.808 2.376 11.451C1.789 11.099 1.313 10.664 1.313 10.011V3.792C1.313 3.681 1.354 3.579 1.422 3.502ZM3.696 6.609C3.48 6.501 3.217 6.588 3.109 6.804C3.001 7.021 3.088 7.283 3.304 7.391L4.471 7.975C4.687 8.083 4.95 7.995 5.058 7.779C5.166 7.563 5.079 7.3 4.862 7.192Z"
    fill="#A9A9A9"
  />
  <path
    d="M9.222 1.459L11.037 2.319C11.46 2.519 11.833 2.696 12.095 2.869C12.358 3.043 12.688 3.328 12.688 3.792C12.688 4.256 12.358 4.541 12.095 4.714C11.833 4.888 11.46 5.064 11.037 5.265L9.222 6.125C8.309 6.558 7.684 6.854 7 6.854C6.316 6.854 5.691 6.558 4.778 6.125L2.963 5.265C2.54 5.064 2.167 4.888 1.905 4.714C1.642 4.541 1.313 4.256 1.313 3.792C1.313 3.328 1.642 3.043 1.905 2.869C2.167 2.696 2.54 2.519 2.963 2.319L4.778 1.459C5.691 1.026 6.316 0.729 7 0.729C7.684 0.729 8.309 1.026 9.222 1.459ZM3.497 3.304C3.024 3.528 2.728 3.67 2.542 3.792C2.728 3.915 3.024 4.057 3.497 4.281L4.123 4.578L8.584 2.395C7.703 1.981 7.358 1.844 7 1.844C6.609 1.844 6.233 2.007 5.158 2.517ZM7 5.741C7.391 5.741 7.767 5.577 8.842 5.068L10.503 4.281C10.976 4.057 11.273 3.915 11.458 3.792C11.273 3.67 10.976 3.528 10.503 3.304L9.877 3.007L5.416 5.19C6.297 5.604 6.642 5.741 7 5.741Z"
    fill="#A9A9A9"
  />
</svg>
