<svg width="589" height="93" viewBox="0 0 589 93" fill="none" xmlns="http://www.w3.org/2000/svg">
<path d="M296.566 26.4967C304.521 24.9646 313.898 24.6504 321 29.028C325.195 32.1289 329.047 35.0658 331 40.028V43.028L322.602 46.9342C320 48.0279 320 48.028 318 48.028L316.125 45.153C313.743 41.562 313.743 41.562 310 40.028C306.311 39.6926 303.715 39.7517 300.25 41.0905C296.813 44.0504 295.306 47.7386 294.713 52.1725C294.598 54.4651 294.59 56.7329 294.625 59.028L294.59 61.3561C294.617 66.6347 295.526 70.3495 298 75.028C300.92 77.5421 302.659 77.9914 306.5 78.403C310.325 77.9931 312.029 77.4368 315 75.028C317.296 71.9609 317.296 71.9606 319 69.028C323.827 70.4409 327.716 72.4577 332 75.028C328.782 82.4934 324.911 87.4847 317.375 90.903C309.733 93.3957 300.531 93.0675 293.062 90.1295C286.231 86.4808 281.519 81.347 279 74.028C275.657 62.5 275.699 50.1558 281.188 39.3405C284.82 33.2536 289.758 28.7264 296.566 26.4967ZM118.859 26.4147C129.069 24.5702 137.707 25.6827 146.184 31.5358C152.44 36.4722 155.287 42.3501 157 50.028C157.745 62.3497 157.807 73.3801 149.75 83.4655C144.643 88.8249 138.463 91.6591 131.117 92.2662C121.714 92.4815 114.206 91.3341 107.125 84.778C99.4223 76.2234 97.6268 66.1799 98.125 54.903C98.6883 48.9098 99.9513 44.2056 103 39.028L104.059 37.1022C107.505 31.5339 112.699 28.4464 118.859 26.4147ZM234 53.028L242 42.028C243.544 40.2022 245.117 38.3993 246.75 36.653C249.005 34.2272 250.96 32.0937 252.688 29.2584C255.298 26.7402 255.862 26.6793 259.328 26.5397C260.969 26.5728 262.61 26.6322 264.25 26.7155L266.797 26.7838C268.865 26.8426 270.933 26.9323 273 27.028C271.479 30.5361 269.4 32.9807 266.812 35.778L264.391 38.4264L262 41.028C260.681 42.4806 259.368 43.9384 258.062 45.403L256.41 47.2389C254.871 49.1921 253.815 50.6672 253 53.028C253.877 55.382 253.877 55.3823 255.551 57.7037C256.144 58.6077 256.737 59.5116 257.348 60.443C257.996 61.399 258.644 62.3555 259.312 63.3405C260.615 65.3186 261.916 67.2979 263.215 69.278C263.859 70.2512 264.504 71.2245 265.168 72.2272C267.665 76.0432 270.04 79.9237 272.375 83.8405C272.749 84.4615 273.123 85.0825 273.509 85.7223C276 89.8967 276 89.8969 276 91.028C259.14 92.3801 259.14 92.38 254.719 89.5866C253.132 87.1557 252.111 84.7131 251 82.028C249.837 79.9197 248.619 77.8473 247.401 75.7701C242.001 66.5437 242 66.5432 242 64.028C238.391 65.7708 236.169 67.6385 234 71.028C232.641 77.5656 232.899 84.3832 233 91.028H217V1.02796H233L234 53.028ZM576 27.028H588V40.028H576V78.028H588C588.098 87.3051 588.098 87.3053 588 90.028C586.18 91.8479 583.45 91.2439 581 91.278C574.02 91.2167 568.413 90.303 562.562 86.403C557.145 78.1677 558.775 66.399 558.875 56.9655C558.885 55.3204 558.894 53.675 558.902 52.0299C558.924 48.0292 558.959 44.0285 559 40.028H550V27.028L556.934 26.442L559 26.028C560.481 23.0665 560.353 20.1928 560.562 16.903L561 10.028H576V27.028ZM359 78.028H367V91.028C352.059 91.443 352.059 91.4429 346.625 87.153C343.117 82.566 342.718 78.9317 342.773 73.2301C342.773 72.4493 342.773 71.6683 342.772 70.8639C342.774 68.2884 342.789 65.7128 342.805 63.1373C342.808 61.3494 342.811 59.561 342.813 57.7731C342.821 53.0715 342.84 48.3701 342.862 43.6686C342.883 38.8693 342.892 34.0695 342.902 29.2701C342.924 19.8561 342.959 10.4419 343 1.02796H359V78.028ZM15 27.028C19.2447 41.565 22.685 56.2539 26 71.028C26.1806 70.4057 26.3618 69.7833 26.5479 69.1422C30.6313 55.0835 34.7677 41.0426 39 27.028H54C55.3878 31.7418 56.7759 36.4556 58.1631 41.1696C58.6343 42.7708 59.1057 44.3721 59.5771 45.9733C60.2576 48.2843 60.9372 50.5957 61.6172 52.9069C61.8256 53.6143 62.0343 54.3216 62.249 55.0504C62.6456 56.3989 63.0398 57.7487 63.4326 59.0983C63.9907 60.9981 64.5704 62.8922 65.1494 64.7858C66.0003 68.0277 66 68.0282 66 72.028H68L68.25 68.6178C69.0301 61.6068 70.7956 54.7804 72.4385 47.9323C73.0041 45.573 73.5613 43.2118 74.1172 40.8502C74.4734 39.3482 74.8302 37.8461 75.1875 36.3444C75.3542 35.6393 75.5207 34.934 75.6924 34.2076C76.8834 29.2608 76.8838 29.2604 78 27.028H93C91.5984 34.4839 89.8063 41.7472 87.7773 49.0553C87.4719 50.1658 87.1663 51.2764 86.8516 52.4205C85.8835 55.9362 84.9104 59.4511 83.9375 62.9655C83.2803 65.3514 82.6234 67.7376 81.9668 70.1237C81.3414 72.3926 80.7158 74.6616 80.0898 76.9303C79.7951 77.9989 79.5 79.0676 79.1963 80.1686C78.9225 81.1571 78.6492 82.1462 78.3672 83.1647C78.0066 84.4681 78.0066 84.4685 77.6387 85.7985C77.1359 87.5546 76.5776 89.295 76 91.028H59C55.625 83.153 55.6248 83.1527 54.7412 80.0201C54.5386 79.3105 54.3357 78.6009 54.127 77.8698C53.9264 77.1499 53.7262 76.4298 53.5195 75.6881C53.326 75.0072 53.132 74.3262 52.9326 73.6246C52.2207 71.1148 51.5172 68.6023 50.8125 66.0905L46 49.028L34 91.028H17C14.6653 84.2019 12.6015 77.3304 10.6445 70.3873C10.338 69.3021 10.0316 68.2164 9.71582 67.0983C9.07346 64.8196 8.43191 62.5407 7.79199 60.2614C6.81085 56.773 5.82064 53.2871 4.83008 49.8014C4.20517 47.5803 3.58077 45.3588 2.95703 43.1373C2.66023 42.0978 2.36341 41.058 2.05762 39.9869C1.78702 39.0154 1.5161 38.0436 1.2373 37.0426C0.997645 36.1926 0.758641 35.3422 0.511719 34.4664C0.00044546 32.0277 1.00034e-10 32.0277 0 27.028H15ZM187 36.028L189.062 33.2155C191.941 29.7947 194.677 28.3468 199 27.028H207V43.028L200.875 43.3405C195.815 43.7263 192.177 44.1275 188 47.028C186.87 49.2882 186.848 50.5989 186.795 53.11C186.775 53.9507 186.755 54.7917 186.734 55.6578C186.709 57.0204 186.709 57.0207 186.684 58.4108C186.663 59.3401 186.643 60.2697 186.621 61.2272C186.556 64.2023 186.496 67.1777 186.438 70.153C186.394 72.1672 186.351 74.1817 186.307 76.1959C186.199 81.1398 186.098 86.0839 186 91.028H170V27.028H186L187 36.028ZM394 91.028H378V27.028H394V91.028ZM505.125 31.7155C512.026 25.2646 520.709 23.7019 529.438 27.7155C535.128 31.0604 537.397 35.3251 539.371 41.4323C540.477 46.0015 540.367 50.5107 540.293 55.1881C540.289 56.2184 540.285 57.2487 540.28 58.3102C540.264 61.5704 540.226 64.8305 540.188 68.0905C540.172 70.3137 540.159 72.5372 540.146 74.7604C540.114 80.1831 540.062 85.6055 540 91.028H524C523.985 89.7568 523.971 88.4851 523.956 87.1754C523.898 82.4453 523.82 77.7157 523.737 72.986C523.704 70.9415 523.676 68.8968 523.653 66.8522C523.62 63.9079 523.568 60.9641 523.512 58.0201C523.505 57.1105 523.499 56.2005 523.492 55.2633C523.374 50.1187 522.847 46.4887 520 42.028C517.297 39.7251 515.683 40.033 512.062 40.0905C509.095 40.3324 507.856 41.1336 505.413 42.9303C501.98 47.3361 502.271 50.9173 502.293 56.36C502.278 57.3516 502.263 58.3432 502.247 59.3649C502.204 62.5235 502.195 65.6816 502.188 68.8405C502.164 70.9856 502.139 73.1309 502.111 75.276C502.048 80.5267 502.016 85.777 502 91.028H486V27.028H502L503 34.028L505.125 31.7155ZM136 41.028C129.655 37.2554 123.4 38.2418 118 43.028C115.216 48.3064 114.511 52.5449 114.625 58.4655C114.634 59.2138 114.642 59.9621 114.651 60.733C114.818 66.9738 115.462 72.0013 119.625 76.9655C123.942 78.8969 128.489 79.8713 133.07 78.3326C136.619 76.4467 138.594 74.7474 140 71.028C140.448 67.0811 140.37 63.1226 140.375 59.153L140.449 55.8912C140.472 49.6432 140.283 45.7286 136 41.028ZM380.425 0.880501C384.838 -0.583815 389.849 -0.262842 393.875 2.15296C396.242 6.09889 396.226 9.93734 395.312 14.3405C394 17.0278 394 17.028 392.375 18.403C387.429 19.7044 383.596 19.7593 379 17.653C376.358 14.1848 376.479 11.7253 376.531 7.46546C376.999 5.0333 377.744 3.63676 379.159 1.97132C379.389 1.63897 379.636 1.3924 380 1.02796L380.425 0.880501Z" fill="#2F263C"/>
<path d="M414.291 35.6915C426.933 22.598 445.102 21.8042 459.906 31.8126C466.136 36.7632 470.75 44.0034 472.004 51.8741C472.858 62.3247 471.713 71.2122 464.842 79.5479C458.806 85.9152 451.746 90.249 442.847 91.2325C434.187 91.4318 427.392 90.0179 420.102 85.3213C419.462 84.9175 418.822 84.5128 418.162 84.0967C411.826 79.4383 408.692 71.9083 406.257 64.6319C405.276 53.3545 406.925 44.4853 414.291 35.6915ZM447.544 32.8594C435.457 30.4512 426.552 32.9046 418.123 41.9717C413.427 48.4304 412.37 54.8478 413.179 62.6612C415.063 69.6173 418.056 76.0261 424.455 79.8409C432.643 84.0572 439.148 85.7002 448.224 82.8575C455.001 80.1956 459.681 76.354 463 69.835C466.401 61.2402 466.177 55.0508 462.823 46.4903C459.658 39.6927 454.557 35.5467 447.544 32.8594ZM449.548 47.4112C451.793 47.8434 451.793 47.8442 452.785 48.8321C453.381 52.4319 452.865 53.6574 450.754 56.7081C449.872 57.7361 448.977 58.7528 448.071 59.7598C447.631 60.2698 447.191 60.7803 446.738 61.3057C444.235 64.1813 441.628 66.9229 438.891 69.5772C434.176 68.1933 432.135 65.856 429.152 62.045C428.367 61.0542 427.584 60.0628 426.776 59.0421C425.895 57.8999 425.895 57.8997 424.996 56.7344C425.651 55.4306 426.306 54.1266 426.981 52.7833C432.34 53.0971 434.447 55.9445 437.898 59.6983C438.485 58.8426 439.073 57.9872 439.678 57.1055C440.469 55.9937 441.261 54.8822 442.054 53.7715C442.438 53.2061 442.823 52.6402 443.219 52.0577C446.195 47.9448 446.195 47.9444 449.548 47.4112Z" fill="#714B96"/>
</svg>
