<svg width="527" height="93" viewBox="0 0 527 93" fill="none" xmlns="http://www.w3.org/2000/svg">
<path d="M118.859 26.4145C129.069 24.57 137.707 25.6825 146.184 31.5356C152.44 36.472 155.287 42.3499 157 50.0278C157.745 62.3495 157.807 73.3799 149.75 83.4653C144.643 88.8247 138.463 91.6589 131.117 92.266C121.714 92.4813 114.206 91.3339 107.125 84.7778C99.4223 76.2232 97.6268 66.1797 98.125 54.9028C98.6883 48.9096 99.9513 44.2054 103 39.0278L104.059 37.102C107.505 31.5337 112.699 28.4462 118.859 26.4145ZM234 53.0278L242 42.0278C243.544 40.202 245.117 38.3991 246.75 36.6528C249.005 34.227 250.96 32.0935 252.688 29.2582C255.298 26.74 255.862 26.6791 259.328 26.5395C260.969 26.5726 262.61 26.632 264.25 26.7153L266.797 26.7836C268.865 26.8424 270.933 26.9321 273 27.0278C271.479 30.536 269.4 32.9805 266.812 35.7778L264.391 38.4262L262 41.0278C260.681 42.4804 259.368 43.9382 258.062 45.4028L256.41 47.2387C254.871 49.1919 253.815 50.6669 253 53.0278C253.877 55.3818 253.877 55.3821 255.551 57.7035C256.144 58.6075 256.737 59.5114 257.348 60.4428C257.996 61.3988 258.644 62.3553 259.312 63.3403C260.615 65.3184 261.916 67.2977 263.215 69.2778C263.859 70.251 264.504 71.2243 265.168 72.227C267.665 76.043 270.04 79.9235 272.375 83.8403C272.749 84.4613 273.123 85.0823 273.509 85.7221C276 89.8965 276 89.8967 276 91.0278C259.14 92.3799 259.14 92.3798 254.719 89.5864C253.132 87.1555 252.111 84.7129 251 82.0278C249.837 79.9195 248.619 77.8471 247.401 75.7699C242.001 66.5434 242 66.543 242 64.0278C238.391 65.7706 236.169 67.6383 234 71.0278C232.641 77.5654 232.899 84.3829 233 91.0278H217V1.02776H233L234 53.0278ZM514 27.0278H526V40.0278H514V78.0278H526C526.098 87.3049 526.098 87.3051 526 90.0278C524.18 91.8477 521.451 91.2437 519 91.2778C512.02 91.2165 506.413 90.3028 500.562 86.4028C495.145 78.1675 496.775 66.3988 496.875 56.9653C496.885 55.3201 496.894 53.6748 496.902 52.0297C496.924 48.029 496.959 44.0283 497 40.0278H488V27.0278L494.934 26.4418L497 26.0278C498.481 23.0662 498.353 20.1926 498.562 16.9028L499 10.0278H514V27.0278ZM297 78.0278H305V91.0278C290.059 91.4428 290.059 91.4427 284.625 87.1528C281.117 82.5658 280.718 78.9315 280.773 73.2299C280.773 72.4491 280.773 71.6681 280.772 70.8637C280.774 68.2881 280.789 65.7126 280.805 63.1371C280.808 61.3492 280.811 59.5608 280.813 57.7729C280.821 53.0713 280.84 48.3699 280.862 43.6684C280.883 38.8691 280.892 34.0693 280.902 29.2699C280.924 19.8559 280.959 10.4418 281 1.02776H297V78.0278ZM15 27.0278C19.2447 41.5648 22.685 56.2537 26 71.0278C26.1806 70.4055 26.3618 69.7832 26.5479 69.142C30.6313 55.0833 34.7677 41.0424 39 27.0278H54C55.3878 31.7416 56.7759 36.4554 58.1631 41.1694C58.6343 42.7706 59.1057 44.3719 59.5771 45.9731C60.2576 48.2841 60.9372 50.5955 61.6172 52.9067C61.8256 53.6141 62.0343 54.3214 62.249 55.0502C62.6456 56.3987 63.0398 57.7485 63.4326 59.0981C63.9907 60.9979 64.5704 62.892 65.1494 64.7856C66.0004 68.0275 66 68.028 66 72.0278H68C68.0825 70.9025 68.165 69.777 68.25 68.6176C69.0301 61.6066 70.7956 54.7802 72.4385 47.9321C73.0041 45.5728 73.5613 43.2116 74.1172 40.85C74.4735 39.348 74.8302 37.8459 75.1875 36.3442C75.3542 35.6391 75.5207 34.9339 75.6924 34.2074C76.8835 29.2605 76.8838 29.2602 78 27.0278H93C91.5984 34.4837 89.8063 41.747 87.7773 49.0551C87.4719 50.1656 87.1663 51.2762 86.8516 52.4203C85.8835 55.936 84.9104 59.4509 83.9375 62.9653C83.2803 65.3512 82.6234 67.7374 81.9668 70.1235C81.3414 72.3924 80.7158 74.6614 80.0898 76.9301C79.7951 77.9988 79.5 79.0673 79.1963 80.1684C78.9225 81.1569 78.6492 82.146 78.3672 83.1645C78.0066 84.4679 78.0066 84.4683 77.6387 85.7983C77.1359 87.5544 76.5776 89.2948 76 91.0278H59C55.625 83.1528 55.6248 83.1525 54.7412 80.0199C54.5386 79.3103 54.3357 78.6007 54.127 77.8696C53.9264 77.1497 53.7262 76.4296 53.5195 75.6879C53.326 75.007 53.132 74.326 52.9326 73.6244C52.2207 71.1146 51.5172 68.6021 50.8125 66.0903L46 49.0278L34 91.0278H17C14.6653 84.2017 12.6015 77.3302 10.6445 70.3871C10.338 69.3019 10.0316 68.2162 9.71582 67.0981C9.07346 64.8194 8.43191 62.5405 7.79199 60.2612C6.81085 56.7728 5.82064 53.2869 4.83008 49.8012C4.20517 47.5801 3.58077 45.3586 2.95703 43.1371C2.66023 42.0976 2.36341 41.0578 2.05762 39.9867C1.78702 39.0152 1.5161 38.0434 1.2373 37.0424C0.997645 36.1924 0.758641 35.342 0.511719 34.4662C0.00045182 32.0275 0 32.0275 0 27.0278H15ZM187 36.0278L189.062 33.2153C191.941 29.7945 194.677 28.3466 199 27.0278H207V43.0278L200.875 43.3403C195.815 43.7261 192.177 44.1273 188 47.0278C186.87 49.288 186.848 50.5987 186.795 53.1098C186.775 53.9505 186.755 54.7915 186.734 55.6576C186.709 57.0202 186.709 57.0205 186.684 58.4106C186.663 59.3399 186.643 60.2695 186.621 61.227C186.556 64.2021 186.496 67.1775 186.438 70.1528C186.394 72.167 186.351 74.1815 186.307 76.1957C186.199 81.1396 186.098 86.0837 186 91.0278H170V27.0278H186L187 36.0278ZM332 91.0278H316V27.0278H332V91.0278ZM443.125 31.7153C450.026 25.2644 458.709 23.7017 467.438 27.7153C473.128 31.0602 475.397 35.3249 477.371 41.4321C478.477 46.0013 478.367 50.5105 478.293 55.1879C478.289 56.2182 478.285 57.2485 478.28 58.31C478.264 61.5702 478.226 64.8303 478.188 68.0903C478.172 70.3135 478.159 72.5369 478.146 74.7602C478.114 80.1829 478.062 85.6053 478 91.0278H462C461.985 89.7566 461.971 88.4849 461.956 87.1752C461.898 82.4451 461.82 77.7155 461.737 72.9858C461.704 70.9413 461.676 68.8966 461.653 66.852C461.62 63.9077 461.568 60.9639 461.512 58.0199C461.505 57.1103 461.499 56.2003 461.492 55.2631C461.374 50.1185 460.847 46.4885 458 42.0278C455.297 39.7249 453.683 40.0328 450.062 40.0903C447.095 40.3322 445.856 41.1334 443.413 42.9301C439.98 47.3359 440.271 50.9171 440.293 56.3598C440.278 57.3514 440.263 58.343 440.247 59.3647C440.204 62.5233 440.195 65.6814 440.188 68.8403C440.164 70.9854 440.139 73.1307 440.111 75.2758C440.048 80.5265 440.016 85.7768 440 91.0278H424V27.0278H440L441 34.0278L443.125 31.7153ZM136 41.0278C129.655 37.2552 123.4 38.2416 118 43.0278C115.216 48.3062 114.511 52.5447 114.625 58.4653C114.634 59.2136 114.642 59.9619 114.651 60.7328C114.818 66.9736 115.462 72.0011 119.625 76.9653C123.942 78.8967 128.489 79.8711 133.07 78.3324C136.619 76.4465 138.594 74.7472 140 71.0278C140.448 67.0809 140.37 63.1224 140.375 59.1528C140.399 58.0765 140.424 57 140.449 55.891C140.472 49.643 140.283 45.7284 136 41.0278ZM318 1.02776C322.514 -0.602203 327.719 -0.340913 331.875 2.15276C334.243 6.0987 334.226 9.93713 333.312 14.3403C332 17.0276 332 17.0278 330.375 18.4028C325.429 19.7042 321.596 19.7591 317 17.6528C314.358 14.1846 314.479 11.7251 314.531 7.46526C315.084 4.59078 316.023 3.16261 318 1.02776Z" fill="#2F263C"/>
<path fill-rule="evenodd" clip-rule="evenodd" d="M352.291 35.6913C364.933 22.5978 383.102 21.804 397.906 31.8124C404.136 36.7631 408.75 44.0032 410.004 51.874C410.858 62.3246 409.713 71.2121 402.842 79.5478C396.806 85.915 389.746 90.2489 380.847 91.2324C372.187 91.4317 365.392 90.0178 358.102 85.3212C357.462 84.9174 356.822 84.5127 356.162 84.0966C349.826 79.4381 346.692 71.9082 344.257 64.6318C343.276 53.3543 344.925 44.4852 352.291 35.6913ZM385.544 32.8593C373.457 30.451 364.552 32.9045 356.123 41.9716C351.427 48.4303 350.37 54.8476 351.179 62.6611C353.063 69.6171 356.056 76.0259 362.455 79.8408C370.643 84.0571 377.148 85.7 386.224 82.8574C393.001 80.1955 397.681 76.3539 401 69.8349C404.401 61.24 404.177 55.0507 400.823 46.4902C397.658 39.6925 392.557 35.5466 385.544 32.8593ZM387.548 47.4111C389.793 47.8433 389.793 47.8441 390.785 48.832C391.381 52.4318 390.865 53.6573 388.754 56.7079C387.872 57.736 386.977 58.7527 386.071 59.7597C385.631 60.2697 385.191 60.7802 384.738 61.3056C382.235 64.1812 379.628 66.9228 376.891 69.5771C372.176 68.1932 370.135 65.8559 367.152 62.0449C366.367 61.0541 365.584 60.0627 364.776 59.0419C363.895 57.8998 363.895 57.8996 362.996 56.7343C363.651 55.4305 364.306 54.1265 364.981 52.7831C370.34 53.097 372.447 55.9443 375.898 59.6982C376.485 58.8424 377.073 57.9871 377.678 57.1054C378.469 55.9935 379.261 54.8821 380.054 53.7714C380.438 53.206 380.823 52.6401 381.219 52.0576C384.195 47.9447 384.195 47.9443 387.548 47.4111Z" fill="#714B96"/>
</svg>
